HIERARCHY
ROOT root
{
	OFFSET 0.000000 0.000000 0.000000
	CHANNELS 6 Xposition Yposition Zposition Zrotation Yrotation Xrotation
	JOINT lhip
	{
		OFFSET 0.058581 -0.082280 -0.017664
		CHANNELS 3 Zrotation Yrotation Xrotation
		JOINT lknee
		{
			OFFSET 0.043451 -0.386469 0.008037
			CHANNELS 3 Zrotation Yrotation Xrotation
			JOINT lankle
			{
				OFFSET -0.014790 -0.426874 -0.037428
				CHANNELS 3 Zrotation Yrotation Xrotation
				JOINT ltoe
				{
					OFFSET 0.041054 -0.060286 0.122042
					CHANNELS 3 Zrotation Yrotation Xrotation
					End Site
					{
						OFFSET 0.000000 0.000000 0.000000
					}
				}
			}
		}
	}
	JOINT rhip
	{
		OFFSET -0.060310 -0.090513 -0.013543
		CHANNELS 3 Zrotation Yrotation Xrotation
		JOINT rknee
		{
			OFFSET -0.043257 -0.383688 -0.004843
			CHANNELS 3 Zrotation Yrotation Xrotation
			JOINT rankle
			{
				OFFSET 0.019056 -0.420046 -0.034562
				CHANNELS 3 Zrotation Yrotation Xrotation
				JOINT rtoe
				{
					OFFSET -0.034840 -0.062106 0.130323
					CHANNELS 3 Zrotation Yrotation Xrotation
					End Site
					{
						OFFSET 0.000000 0.000000 0.000000
					}
				}
			}
		}
	}
	JOINT lowerback
	{
		OFFSET 0.004439 0.124404 -0.038385
		CHANNELS 3 Zrotation Yrotation Xrotation
		JOINT upperback
		{
			OFFSET 0.004488 0.137956 0.026820
			CHANNELS 3 Zrotation Yrotation Xrotation
			JOINT chest
			{
				OFFSET -0.002265 0.056032 0.002855
				CHANNELS 3 Zrotation Yrotation Xrotation
				JOINT lowerneck
				{
					OFFSET -0.013390 0.211636 -0.033468
					CHANNELS 3 Zrotation Yrotation Xrotation
					JOINT upperneck
					{
						OFFSET 0.010113 0.088937 0.050410
						CHANNELS 3 Zrotation Yrotation Xrotation
						End Site
						{
							OFFSET 0.000000 0.000000 0.000000
						}
					}
				}
				JOINT lclavicle
				{
					OFFSET 0.071702 0.114000 -0.018898
					CHANNELS 3 Zrotation Yrotation Xrotation
					JOINT lshoulder
					{
						OFFSET 0.122921 0.045205 -0.019046
						CHANNELS 3 Zrotation Yrotation Xrotation
						JOINT lelbow
						{
							OFFSET 0.255332 -0.015649 -0.022946
							CHANNELS 3 Zrotation Yrotation Xrotation
							JOINT lwrist
							{
								OFFSET 0.265709 0.012698 -0.007375
								CHANNELS 3 Zrotation Yrotation Xrotation
								End Site
								{
									OFFSET 0.000000 0.000000 0.000000
								}
							}
						}
					}
				}
				JOINT rclavicle
				{
					OFFSET -0.082954 0.112472 -0.023707
					CHANNELS 3 Zrotation Yrotation Xrotation
					JOINT rshoulder
					{
						OFFSET -0.113228 0.046853 -0.008472
						CHANNELS 3 Zrotation Yrotation Xrotation
						JOINT relbow
						{
							OFFSET -0.260127 -0.014369 -0.031269
							CHANNELS 3 Zrotation Yrotation Xrotation
							JOINT rwrist
							{
								OFFSET -0.269108 0.006794 -0.006027
								CHANNELS 3 Zrotation Yrotation Xrotation
								End Site
								{
									OFFSET 0.000000 0.000000 0.000000
								}
							}
						}
					}
				}
			}
		}
	}
}
MOTION
Frames: 14
Frame Time: 0.033333
0.271525 0.824124 1.006272 89.365536 5.422399 86.373499 6.703304 2.368257 2.501394 -4.557346 -12.548324 -1.770257 2.907135 10.258224 -12.099239 0.000000 -0.000000 0.000000 0.503182 1.620570 -10.474671 2.366305 1.083433 28.558021 6.828686 -5.921712 -14.364811 0.000000 -0.000000 0.000000 -4.328355 -1.839050 14.776096 1.484534 -4.635304 10.584465 -0.693891 -4.012818 6.863312 3.444646 5.051359 24.169420 4.995647 -0.282317 12.726650 -24.405942 1.391601 3.608791 -41.076335 -11.633301 6.128006 12.898154 -50.605552 -2.954994 2.397620 -1.593029 -11.213704 22.131105 -6.403464 2.089790 48.382019 -3.568726 12.789422 -11.027690 54.547369 5.894038 11.295749 1.205529 -10.578527 
0.272826 0.818922 1.007221 89.671013 5.113470 85.356639 6.648862 2.031685 3.859135 -4.326415 -12.566988 -1.932076 2.404534 10.033222 -12.303481 0.000000 -0.000000 0.000000 0.479250 1.271704 -9.844620 2.203587 -0.316534 26.959025 7.027862 -5.864905 -13.898621 0.000000 -0.000000 0.000000 -4.083056 -2.041529 14.522392 1.408313 -4.694875 11.187536 -0.780983 -4.031441 7.537876 3.718879 5.315102 23.192874 5.689587 -0.786352 12.636938 -24.479711 1.223106 2.157790 -43.133180 -13.212755 7.685815 14.913272 -52.892762 -5.271008 3.786240 -1.938928 -12.672096 22.683872 -6.066586 0.793733 47.906774 -2.732372 13.680635 -10.864205 54.860987 5.577078 10.845981 0.867194 -9.952146 
0.274582 0.812840 1.007229 89.850835 4.738179 84.591574 6.709685 1.635255 4.715921 -4.437303 -12.392112 -1.595011 2.432239 10.033093 -12.613568 0.000000 -0.000000 0.000000 0.525897 1.016450 -8.997189 2.492360 -0.268833 27.103514 7.238843 -5.046229 -11.988932 0.000000 -0.000000 0.000000 -3.909498 -1.947029 14.058449 1.486282 -4.507473 11.223378 -0.636324 -4.029512 7.203535 3.335407 4.890744 23.944859 5.092933 -0.568499 13.952803 -24.696366 1.224639 2.542378 -45.537082 -13.958180 8.452966 16.561154 -54.538126 -6.750054 4.716866 -1.903601 -14.683251 22.638266 -5.494531 1.167293 48.155113 -1.386520 13.781754 -10.693722 54.730521 5.648194 9.686525 1.244062 -9.444563 
0.277007 0.806166 1.006457 89.890310 4.081657 84.162477 6.527214 1.230142 5.083867 -4.672008 -11.895340 -0.944965 2.638559 9.864167 -12.987225 0.000000 -0.000000 0.000000 0.271963 0.352096 -7.273629 2.801246 0.427194 25.703259 7.631036 -3.572597 -7.680651 0.000000 -0.000000 0.000000 -3.760141 -1.572246 12.855644 1.420614 -4.403908 11.735248 -0.756765 -3.755712 7.200890 3.244562 4.660998 23.997789 5.285957 -0.292106 14.130707 -25.152968 1.594553 2.420677 -47.418852 -14.063149 9.374568 17.609154 -55.895246 -6.982345 4.722009 -1.697882 -15.500797 23.226151 -5.023285 0.936378 48.509593 0.544376 14.021821 -10.979504 54.487764 5.276834 9.432636 1.105343 -9.087761 
0.279434 0.798142 1.005117 89.838072 3.459041 83.963283 6.550782 1.120256 5.171103 -4.970628 -11.241464 -0.282842 2.652472 9.431669 -13.601981 0.000000 -0.000000 0.000000 0.024587 -0.129008 -4.733102 3.130232 1.405237 22.144468 6.529133 -2.465341 -7.854840 0.000000 -0.000000 0.000000 -3.551009 -0.965580 11.504700 1.449118 -4.146716 12.098285 -0.834823 -3.391181 7.224982 3.657701 4.883974 24.161484 4.303543 -0.032830 14.992572 -25.751537 2.554053 2.203768 -48.812045 -13.672727 10.028837 16.534544 -56.387798 -4.721955 4.221194 -1.286017 -15.477028 23.993181 -4.414601 0.877746 48.954608 2.710725 14.284012 -11.993117 54.277325 4.403521 8.671434 0.843692 -8.662914 
0.280590 0.789497 1.004197 89.597230 2.913346 83.794727 6.673762 1.477075 5.001735 -5.175604 -10.741616 0.664198 2.450658 9.001829 -14.244126 0.000000 -0.000000 0.000000 -0.402643 -1.151093 -2.149920 3.806514 1.734473 17.801515 5.897633 -1.885738 -8.803479 0.000000 -0.000000 0.000000 -3.096588 -0.090482 10.814175 1.365444 -3.779440 12.239573 -0.828675 -2.898406 6.749347 4.025477 4.937210 24.163313 4.047164 0.043400 14.775412 -26.496045 3.126032 2.346452 -49.433392 -12.253217 10.114727 14.997716 -55.981062 -1.967614 3.504674 -1.144148 -14.580269 24.924883 -3.403299 0.953053 49.423186 4.974310 13.936191 -12.683405 53.744933 3.699259 8.345976 0.657887 -8.394035 
0.279943 0.779792 1.004785 88.787588 2.739173 83.884834 6.991854 1.646166 4.449453 -4.912675 -9.934932 1.807099 1.946726 8.866687 -14.514807 0.000000 -0.000000 0.000000 -0.275864 -1.983846 -0.114103 4.408067 1.860324 13.624390 4.824753 -0.952390 -8.635710 0.000000 -0.000000 0.000000 -2.071649 0.935233 10.195173 1.369306 -2.897824 12.574221 -1.063372 -2.170127 6.560261 4.677917 4.937003 23.453068 3.659919 -0.600734 15.669488 -27.190892 3.386084 2.229981 -49.654156 -10.582337 10.255662 13.980426 -54.834854 0.065597 2.502020 -0.973261 -12.728641 26.061073 -2.051499 1.087994 49.717939 7.536774 13.587534 -14.184322 53.189583 2.073130 7.767604 0.797646 -8.192736 
0.277345 0.770543 1.006019 87.778664 2.499515 83.831815 6.921879 1.812149 3.636864 -4.229560 -9.284819 3.498395 1.711202 9.151344 -14.621690 0.000000 -0.000000 0.000000 -0.318071 -2.459834 1.403132 5.027600 2.151966 10.342911 4.400278 0.025601 -7.895769 0.000000 -0.000000 0.000000 -0.979179 1.840702 10.665726 1.172058 -1.831896 12.679394 -1.089761 -1.231914 5.809000 4.643210 4.641239 23.228161 3.217906 -0.464982 15.153115 -27.740187 3.554150 2.513317 -49.576012 -8.695300 9.771844 13.157163 -53.542075 1.290555 1.467434 -0.216439 -11.838888 26.107221 -0.050484 1.995863 50.306861 9.928327 12.902192 -15.770232 52.674660 -0.006156 6.869613 0.472689 -8.306218 
0.271671 0.762364 1.007051 87.103108 2.071629 84.189388 6.585804 1.128227 1.430444 -3.913989 -8.438738 6.703662 1.234208 9.605835 -15.046090 0.000000 -0.000000 0.000000 -0.579531 -2.304651 1.597894 5.571337 2.350908 8.403084 4.645628 0.636665 -6.760361 0.000000 -0.000000 0.000000 0.175223 2.585073 11.976283 0.833913 -0.768186 11.729780 -1.505966 -0.326016 5.740873 5.092974 4.388252 21.790614 3.260641 -1.577397 15.815664 -27.783784 3.994630 1.859474 -49.095486 -7.176435 9.600438 12.029196 -52.688871 2.362304 -0.524829 0.091051 -10.782411 26.103748 1.160432 1.496170 50.398175 11.847115 12.919238 -16.613968 53.013028 -1.155212 7.160240 0.002369 -8.186816 
0.265366 0.755733 1.006725 87.248976 1.347203 84.696240 6.119346 -0.225105 -1.807842 -4.309719 -7.807959 11.715859 1.400126 9.596691 -15.878111 0.000000 -0.000000 0.000000 -0.862683 -2.390423 1.208100 5.780492 2.499875 7.286887 4.191796 0.394682 -6.206685 0.000000 -0.000000 0.000000 1.226516 3.372833 13.674648 0.437812 -0.065888 10.415916 -1.873208 0.180568 5.497699 4.818571 3.873868 20.681819 3.511333 -1.772533 15.206667 -27.600524 4.013608 1.782022 -47.925255 -6.191221 9.161555 10.410168 -52.669823 4.028598 -1.260225 -0.041490 -10.301516 25.344777 2.017025 1.644783 50.000713 12.712981 12.602311 -17.363780 54.562906 -2.083021 6.176602 -0.052067 -8.128493 
0.259886 0.749875 1.005729 87.683976 0.414301 85.441358 5.741785 -1.133488 -5.014192 -5.208816 -6.956425 17.961340 1.752771 9.560578 -17.653175 0.000000 -0.000000 0.000000 -1.174979 -2.760903 0.096709 5.591850 2.684259 7.047732 3.726763 0.029430 -6.012335 0.000000 -0.000000 0.000000 1.967165 4.208441 14.801760 0.191560 0.530627 9.569224 -2.393627 0.498603 5.331100 4.730871 3.136338 19.299882 3.770647 -2.363372 15.275824 -27.301175 3.478323 1.612535 -46.506014 -6.120862 8.813945 9.189088 -53.024376 5.007282 -1.729256 -0.568117 -9.524250 24.687499 2.117297 1.499343 49.242821 12.626628 12.000573 -18.496666 56.212258 -3.319376 6.862839 0.424009 -8.519522 
0.254085 0.744553 1.005813 88.087642 -0.360128 86.357803 5.864184 -1.589395 -7.121193 -5.856840 -5.427080 24.217952 1.601695 9.839650 -18.683357 0.000000 -0.000000 0.000000 -1.223444 -2.776570 -1.462763 5.182551 2.681396 7.220736 3.334311 -0.418783 -5.848580 0.000000 -0.000000 0.000000 2.442538 4.631640 15.732851 -0.015162 0.943067 8.929251 -2.790658 0.453408 5.124995 4.114847 2.702368 18.576426 3.905866 -2.479884 14.745291 -27.065527 2.646688 1.535392 -45.577215 -6.924482 8.405090 9.398960 -53.312900 4.489654 -0.784592 -0.400396 -9.211982 24.265201 2.019414 1.440648 48.491648 12.526113 11.305730 -19.000451 55.998785 -4.315843 6.251385 0.193849 -9.237800 
0.249941 0.739097 1.006807 88.588592 -1.066120 87.290997 6.183789 -1.364734 -7.054934 -5.953796 -4.751831 28.824477 1.824976 10.557607 -19.537204 0.000000 -0.000000 0.000000 -1.174387 -2.805944 -2.852466 4.711723 2.893948 7.348749 3.073803 -0.910894 -5.786300 0.000000 -0.000000 0.000000 2.178916 4.411835 16.257044 -0.187435 0.844479 8.381572 -3.014385 0.357383 5.365987 4.046514 3.149681 17.202579 4.680864 -2.844455 15.031614 -26.636055 2.081762 0.841422 -45.030418 -8.419782 8.336040 9.531310 -53.588319 4.515843 0.035121 -0.519316 -8.843928 24.343503 1.749889 0.875393 47.949780 12.047119 10.891992 -19.335793 54.407059 -4.546988 6.110307 -0.337309 -8.046407 
0.247220 0.734645 1.007020 89.728454 -1.839195 88.579561 6.770220 -0.921121 -5.842256 -6.604669 -5.318983 32.593032 1.573045 10.710642 -20.432181 0.000000 -0.000000 0.000000 -1.440505 -2.982454 -4.610868 4.585194 2.556052 7.803910 2.393640 -1.593777 -6.145538 0.000000 -0.000000 0.000000 1.504744 3.342347 16.003348 -0.415687 0.036856 7.906664 -3.017177 -0.165898 4.900387 2.979101 3.768636 17.390583 4.350928 -1.553970 14.871480 -26.267692 1.271872 1.591404 -44.271962 -9.742086 7.666628 9.829307 -54.586380 4.644144 -0.691208 -0.274731 -10.297924 24.074547 1.468601 1.565391 47.659493 10.878131 10.225591 -19.201082 52.584761 -3.615857 6.688878 -1.099188 -6.993282 
